<svg width="300" height="300" viewBox="0 0 300 300" fill="none" xmlns="http://www.w3.org/2000/svg">
<path fill-rule="evenodd" clip-rule="evenodd" d="M16.7749 219.615C17.8456 219.234 18.9724 218.727 19.8413 217.992C20.8733 217.12 21.293 215.997 21.5749 214.815C21.9367 213.296 22.0813 211.679 22.5201 210.157C22.6826 209.592 22.9952 209.379 23.1294 209.284C23.4684 209.045 23.8112 208.981 24.1336 209.005C24.5158 209.032 25.0407 209.177 25.386 209.818C25.4352 209.909 25.4992 210.049 25.5423 210.24C25.5736 210.381 25.5939 210.819 25.6272 211C25.7103 211.446 25.7798 211.891 25.845 212.339C26.0623 213.831 26.1872 215.097 26.8733 216.467C27.8044 218.327 28.7374 219.464 30.0026 219.968C31.226 220.456 32.6887 220.364 34.5577 219.982C34.7355 219.939 34.9115 219.902 35.0856 219.872C35.9096 219.728 36.6973 220.269 36.8592 221.09C37.021 221.91 36.4974 222.709 35.6807 222.89C35.5103 222.927 35.3423 222.963 35.1761 222.995C32.6506 223.621 29.7269 225.852 28.0278 227.806C27.5041 228.408 26.7373 230.093 25.9552 231.167C25.378 231.96 24.7293 232.482 24.1847 232.667C23.8198 232.791 23.5121 232.772 23.258 232.709C22.8887 232.618 22.5823 232.418 22.3472 232.1C22.2192 231.926 22.1004 231.693 22.0438 231.395C22.0167 231.251 22.0137 230.887 22.0143 230.722C21.8549 230.174 21.6598 229.639 21.5177 229.085C21.1786 227.765 20.5133 226.93 19.7232 225.826C18.9841 224.792 18.1903 224.143 17.0266 223.625C16.8752 223.588 15.6537 223.289 15.2223 223.117C14.5921 222.866 14.2918 222.444 14.1829 222.217C13.9976 221.832 13.9786 221.495 14.0155 221.215C14.0703 220.8 14.2561 220.446 14.586 220.16C14.7903 219.982 15.0955 219.809 15.5041 219.725C15.8198 219.659 16.6573 219.621 16.7749 219.615ZM23.941 217.464C23.9976 217.59 24.058 217.717 24.122 217.845C25.4856 220.568 27.0106 222.089 28.8641 222.827L28.9263 222.851C27.6863 223.771 26.5638 224.8 25.7059 225.787C25.3527 226.193 24.885 227.037 24.3798 227.902C23.9207 226.41 23.17 225.355 22.226 224.035C21.5047 223.027 20.749 222.269 19.8204 221.651C20.541 221.282 21.2284 220.848 21.8272 220.343C22.8241 219.5 23.4832 218.524 23.941 217.464Z" fill="#D9D9D9"/>
<path fill-rule="evenodd" clip-rule="evenodd" d="M28.7749 42.6152C29.8456 42.2336 30.9724 41.7265 31.8413 40.9924C32.8733 40.1204 33.293 38.9973 33.5749 37.8152C33.9367 36.2964 34.0813 34.6785 34.5201 33.1573C34.6826 32.5924 34.9952 32.3788 35.1294 32.2841C35.4684 32.0447 35.8112 31.9807 36.1336 32.0047C36.5158 32.0324 37.0407 32.177 37.386 32.8176C37.4352 32.9093 37.4992 33.049 37.5423 33.2404C37.5736 33.3807 37.5939 33.8195 37.6272 34.0004C37.7103 34.4459 37.7798 34.8915 37.845 35.3395C38.0623 36.8306 38.1872 38.097 38.8733 39.4668C39.8044 41.3265 40.7374 42.4644 42.0026 42.9684C43.226 43.4558 44.6887 43.3641 46.5577 42.9819C46.7355 42.9389 46.9115 42.9019 47.0856 42.8718C47.9096 42.7278 48.6973 43.2687 48.8592 44.0896C49.021 44.9099 48.4974 45.7093 47.6807 45.8896C47.5103 45.9272 47.3423 45.9629 47.1761 45.9955C44.6506 46.6207 41.7269 48.8521 40.0278 50.8059C39.5041 51.4084 38.7373 53.0927 37.9552 54.1672C37.378 54.9598 36.7293 55.4822 36.1847 55.6669C35.8198 55.7912 35.5121 55.7721 35.258 55.7093C34.8887 55.6183 34.5823 55.4182 34.3472 55.1001C34.2192 54.9259 34.1004 54.6927 34.0438 54.3948C34.0167 54.2515 34.0137 53.8872 34.0143 53.7223C33.8549 53.1739 33.6598 52.6385 33.5177 52.0853C33.1786 50.7653 32.5133 49.9296 31.7232 48.8256C30.9841 47.7924 30.1903 47.1432 29.0266 46.625C28.8752 46.5881 27.6537 46.289 27.2223 46.1173C26.5921 45.8656 26.2918 45.4441 26.1829 45.217C25.9976 44.8318 25.9786 44.4952 26.0155 44.2146C26.0703 43.8004 26.2561 43.4459 26.586 43.1598C26.7903 42.9819 27.0955 42.809 27.5041 42.7247C27.8198 42.6589 28.6573 42.6207 28.7749 42.6152ZM35.941 40.4638C35.9976 40.5899 36.058 40.7167 36.122 40.8447C37.4856 43.5684 39.0106 45.089 40.8641 45.8269L40.9263 45.8509C39.6863 46.7715 38.5638 47.8004 37.7059 48.7869C37.3527 49.193 36.885 50.0367 36.3798 50.9019C35.9207 49.4096 35.17 48.3549 34.226 47.0349C33.5047 46.0275 32.749 45.2693 31.8204 44.6515C32.541 44.2816 33.2284 43.8484 33.8272 43.3426C34.8241 42.5001 35.4832 41.5241 35.941 40.4638Z" fill="#D9D9D9"/>
<path d="M143 260C205.96 260 257 208.96 257 146C257 83.0395 205.96 32 143 32C80.0395 32 29 83.0395 29 146C29 208.96 80.0395 260 143 260Z" fill="url(#paint0_linear_1216_4912)"/>
<path fill-rule="evenodd" clip-rule="evenodd" d="M142.5 77C154.926 77 165 66.9264 165 54.5C165 42.0736 154.926 32 142.5 32C130.074 32 120 42.0736 120 54.5C120 66.9264 130.074 77 142.5 77ZM142 67C148.627 67 154 61.6274 154 55C154 48.3726 148.627 43 142 43C135.373 43 130 48.3726 130 55C130 61.6274 135.373 67 142 67Z" fill="#011625"/>
<path d="M142.05 235.1C166.378 235.1 186.1 215.378 186.1 191.05C186.1 166.722 166.378 147 142.05 147C117.722 147 98 166.722 98 191.05C98 215.378 117.722 235.1 142.05 235.1Z" fill="#FDE9C9"/>
<path d="M211.767 158.299V124.504C211.767 106.07 204.444 88.3917 191.41 75.3572C178.375 62.3227 160.697 55 142.263 55C123.83 55 106.151 62.3227 93.1165 75.3572C80.082 88.3917 72.7593 106.07 72.7593 124.504V158.299C72.7601 166.063 70.5637 173.669 66.424 180.237C62.2843 186.806 56.3702 192.069 49.3655 195.418C47.7555 196.184 46.3965 197.393 45.4466 198.902C44.4967 200.411 43.9951 202.159 44 203.942V204.125C43.9988 204.769 44.1247 205.407 44.3703 206.003C44.6159 206.598 44.9765 207.139 45.4315 207.595C45.8865 208.051 46.4269 208.412 47.0218 208.659C47.6168 208.906 48.2545 209.033 48.8985 209.033H235.619C236.263 209.033 236.9 208.906 237.495 208.659C238.09 208.412 238.631 208.051 239.086 207.595C239.541 207.139 239.901 206.598 240.147 206.003C240.392 205.407 240.518 204.769 240.517 204.125V203.942C240.518 202.165 240.015 200.423 239.067 198.919C238.119 197.416 236.765 196.211 235.161 195.445C228.152 192.094 222.235 186.827 218.095 180.253C213.955 173.68 211.761 166.068 211.767 158.299Z" fill="#5F8C84"/>
<path fill-rule="evenodd" clip-rule="evenodd" d="M241 209H44V203H241V209Z" fill="#011625"/>
<path fill-rule="evenodd" clip-rule="evenodd" d="M88.1084 224.302C83.3178 228.634 78.5408 232.879 73.8786 237.349C72.8721 238.307 72.8342 239.886 73.7864 240.882C74.7417 241.887 76.33 241.918 77.327 240.963C81.9667 236.522 86.7022 232.312 91.4608 228.011C92.486 227.078 92.5653 225.495 91.6482 224.478C90.7184 223.454 89.1336 223.369 88.1084 224.302Z" fill="#011625"/>
<path fill-rule="evenodd" clip-rule="evenodd" d="M196.324 224.304C201.088 228.637 205.838 232.883 210.473 237.353C211.474 238.311 211.503 239.89 210.547 240.883C209.588 241.886 208.001 241.916 207.01 240.961C202.398 236.519 197.689 232.308 192.957 228.006C191.937 227.073 191.866 225.492 192.787 224.476C193.721 223.454 195.305 223.371 196.324 224.304Z" fill="#011625"/>
<path fill-rule="evenodd" clip-rule="evenodd" d="M139.152 252.296C139.076 258.741 138.945 265.117 139.057 271.56C139.076 272.947 140.208 274.043 141.584 274.017C142.969 273.995 144.07 272.851 144.046 271.474C143.94 265.066 144.069 258.744 144.146 252.343C144.158 250.96 143.052 249.832 141.684 249.817C140.303 249.807 139.165 250.913 139.152 252.296Z" fill="#011625"/>
<path fill-rule="evenodd" clip-rule="evenodd" d="M265.775 183.615C266.846 183.234 267.972 182.727 268.841 181.992C269.873 181.12 270.293 179.997 270.575 178.815C270.937 177.296 271.081 175.679 271.52 174.157C271.683 173.592 271.995 173.379 272.129 173.284C272.468 173.045 272.811 172.981 273.134 173.005C273.516 173.032 274.041 173.177 274.386 173.818C274.435 173.909 274.499 174.049 274.542 174.24C274.574 174.381 274.594 174.819 274.627 175C274.71 175.446 274.78 175.891 274.845 176.339C275.062 177.831 275.187 179.097 275.873 180.467C276.804 182.327 277.737 183.464 279.003 183.968C280.226 184.456 281.689 184.364 283.558 183.982C283.735 183.939 283.911 183.902 284.086 183.872C284.91 183.728 285.697 184.269 285.859 185.09C286.021 185.91 285.497 186.709 284.681 186.89C284.51 186.927 284.342 186.963 284.176 186.995C281.651 187.621 278.727 189.852 277.028 191.806C276.504 192.408 275.737 194.093 274.955 195.167C274.378 195.96 273.729 196.482 273.185 196.667C272.82 196.791 272.512 196.772 272.258 196.709C271.889 196.618 271.582 196.418 271.347 196.1C271.219 195.926 271.1 195.693 271.044 195.395C271.017 195.251 271.014 194.887 271.014 194.722C270.855 194.174 270.66 193.639 270.518 193.085C270.179 191.765 269.513 190.93 268.723 189.826C267.984 188.792 267.19 188.143 266.027 187.625C265.875 187.588 264.654 187.289 264.222 187.117C263.592 186.866 263.292 186.444 263.183 186.217C262.998 185.832 262.979 185.495 263.016 185.215C263.07 184.8 263.256 184.446 263.586 184.16C263.79 183.982 264.096 183.809 264.504 183.725C264.82 183.659 265.657 183.621 265.775 183.615ZM272.941 181.464C272.998 181.59 273.058 181.717 273.122 181.845C274.486 184.568 276.011 186.089 277.864 186.827L277.926 186.851C276.686 187.771 275.564 188.8 274.706 189.787C274.353 190.193 273.885 191.037 273.38 191.902C272.921 190.41 272.17 189.355 271.226 188.035C270.505 187.027 269.749 186.269 268.82 185.651C269.541 185.282 270.228 184.848 270.827 184.343C271.824 183.5 272.483 182.524 272.941 181.464Z" fill="#D9D9D9"/>
<defs>
<linearGradient id="paint0_linear_1216_4912" x1="142.121" y1="-5.1212" x2="144.457" y2="395.23" gradientUnits="userSpaceOnUse">
<stop stop-color="#F2F2F2"/>
<stop offset="1" stop-color="#EFEFEF"/>
</linearGradient>
</defs>
</svg>
