<svg width="300" height="300" viewBox="0 0 300 300" fill="none" xmlns="http://www.w3.org/2000/svg">
<g clip-path="url(#clip0_1216_4914)">
<path d="M155.5 274C220.393 274 273 221.393 273 156.5C273 91.6065 220.393 39 155.5 39C90.6065 39 38 91.6065 38 156.5C38 221.393 90.6065 274 155.5 274Z" fill="url(#paint0_linear_1216_4914)"/>
<path d="M84.6654 202L134.039 66.4233L238.157 176.512L117.229 232.024C97.858 240.916 77.3717 222.028 84.6654 202Z" fill="#5F8C84"/>
<path d="M135.483 65.6182C136.242 64.9058 137.328 64.518 138.764 64.4855C140.205 64.453 141.964 64.78 144.01 65.4635C148.101 66.8304 153.241 69.5872 159.087 73.5252C170.773 81.3966 185.194 93.9223 199.57 109.239C213.945 124.556 225.533 139.741 232.648 151.902C236.208 157.986 238.634 163.289 239.739 167.459C240.291 169.544 240.507 171.32 240.383 172.756C240.259 174.187 239.804 175.247 239.045 175.959C238.286 176.672 237.199 177.059 235.763 177.092C234.322 177.125 232.563 176.798 230.517 176.115C226.425 174.748 221.287 171.99 215.44 168.052C203.755 160.181 189.333 147.655 174.958 132.339C160.582 117.022 148.995 101.837 141.879 89.6756C138.319 83.5917 135.893 78.2889 134.788 74.1189C134.235 72.0335 134.021 70.2572 134.145 68.8215C134.268 67.39 134.724 66.3306 135.483 65.6182Z" fill="#011625" stroke="#011625"/>
<mask id="mask0_1216_4914" style="mask-type:alpha" maskUnits="userSpaceOnUse" x="83" y="66" width="156" height="168">
<path d="M84.6654 201.577L134.039 66L238.157 176.089L117.229 231.601C97.858 240.493 77.3717 221.605 84.6654 201.577Z" fill="#5F8C84"/>
</mask>
<g mask="url(#mask0_1216_4914)">
<path fill-rule="evenodd" clip-rule="evenodd" d="M131.724 156.574C110.864 129.256 100.309 96.6871 96.9048 74.8214L113.702 72.2062C116.767 91.8881 126.439 121.641 145.235 146.257C163.855 170.642 191.096 189.657 229.947 189.657V206.657C184.607 206.657 152.761 184.124 131.724 156.574Z" fill="#011625"/>
<path fill-rule="evenodd" clip-rule="evenodd" d="M133.963 151.35C113.103 124.031 102.548 91.4625 99.144 69.5968L115.942 66.9816C119.006 86.6636 128.678 116.416 147.474 141.033C166.094 165.417 193.336 184.432 232.186 184.432V201.432C186.846 201.432 155 178.9 133.963 151.35Z" fill="white"/>
<path fill-rule="evenodd" clip-rule="evenodd" d="M107.094 190.907C86.2338 163.589 75.6791 131.02 72.2749 109.154L89.0725 106.539C92.1368 126.221 101.809 155.974 120.605 180.59C139.225 204.974 166.467 223.99 205.317 223.99V240.99C159.977 240.99 128.131 218.457 107.094 190.907Z" fill="white"/>
</g>
<circle cx="180" cy="213" r="30" fill="#8FA692"/>
<path fill-rule="evenodd" clip-rule="evenodd" d="M192.139 203.897C193.301 205.079 193.285 206.978 192.103 208.139L177.861 222.139C176.693 223.287 174.822 223.287 173.655 222.139L167.897 216.48C166.715 215.318 166.699 213.419 167.861 212.237C169.022 211.056 170.921 211.04 172.103 212.201L175.758 215.793L187.897 203.861C189.079 202.699 190.978 202.715 192.139 203.897Z" fill="white"/>
<path d="M238.664 69.7687C238.362 70.5381 237.49 70.9194 236.721 70.6158L236.718 70.6144C235.949 70.3155 235.568 69.4454 235.871 68.677C237.891 63.5413 238.453 58.3968 239.314 53.1412C239.448 52.3234 240.221 51.7676 241.037 51.9022C241.856 52.0371 242.409 52.8064 242.276 53.622C241.357 59.2318 240.742 64.4922 238.664 69.7687Z" fill="#011625" stroke="#011625"/>
<path d="M248.983 81.794C248.304 82.2656 247.368 82.0957 246.894 81.4175C246.423 80.7426 246.589 79.8112 247.269 79.3385C257.337 72.3685 267.202 62.9817 274.538 53.1487L274.539 53.1479C275.032 52.4865 275.973 52.3493 276.64 52.8421C277.303 53.3325 277.441 54.2699 276.948 54.9328C269.665 64.6957 259.941 74.0376 249.951 81.1158L248.983 81.794Z" fill="#011625" stroke="#011625"/>
<path d="M275.667 90.2326C267.571 92.5457 258.652 93.7211 250.522 91.2391C249.73 90.9969 249.285 90.1571 249.526 89.3725L249.526 89.3715C249.752 88.6353 250.503 88.1965 251.25 88.3443L251.399 88.381C259.065 90.7201 267.398 89.4846 274.839 87.3559C275.637 87.1308 276.468 87.5909 276.696 88.3841L276.696 88.3852C276.923 89.1704 276.467 90.0012 275.667 90.2326Z" fill="#011625" stroke="#011625"/>
<circle cx="251" cy="106" r="6" fill="#ACD4DF"/>
<circle cx="201" cy="44" r="6" fill="#ACD4DF"/>
<path d="M212.543 70.4607C212.025 68.3167 208.975 68.3167 208.458 70.4607L207.787 73.2379C207.602 74.0041 207.004 74.6023 206.238 74.7873L203.461 75.4576C201.317 75.9752 201.317 79.0248 203.461 79.5424L206.238 80.2128C207.004 80.3977 207.602 80.9959 207.787 81.7621L208.458 84.5393C208.975 86.6833 212.025 86.6833 212.543 84.5393L213.213 81.7621C213.398 80.9959 213.996 80.3977 214.762 80.2128L217.539 79.5424C219.683 79.0248 219.683 75.9752 217.539 75.4576L214.762 74.7873C213.996 74.6023 213.398 74.0041 213.213 73.2379L212.543 70.4607Z" fill="#ACD4DF"/>
<path fill-rule="evenodd" clip-rule="evenodd" d="M186.965 24.3106C187.571 25.8525 186.813 27.594 185.271 28.2003C180.87 29.931 175.229 35.5058 171.464 42.4446C168.597 47.7263 167.205 53.0604 167.789 57.4257C169.55 54.9118 171.659 52.8498 174.104 51.5251C178.488 49.1506 183.489 49.4027 188.332 52.7024C192.563 55.5856 194.288 59.6882 193.831 63.776C193.394 67.6844 191.01 71.2176 187.776 73.4372C184.493 75.6901 180.134 76.7289 175.637 75.3521C173.088 74.5715 170.644 73.0622 168.407 70.7704C166.273 79.0787 166.35 89.4857 169.877 98.69C170.47 100.237 169.696 101.972 168.149 102.565C166.602 103.158 164.867 102.384 164.274 100.837C159.622 88.6983 160.227 74.8348 164.02 64.7377C163.912 64.543 163.805 64.3457 163.699 64.1456C159.709 56.6112 162.098 47.1223 166.19 39.5825C170.314 31.9845 176.853 25.0633 183.075 22.6165C184.617 22.0102 186.359 22.7687 186.965 24.3106ZM170.757 64.2219C173.023 67.4406 175.373 68.9962 177.394 69.615C179.939 70.3943 182.42 69.8354 184.381 68.4901C186.389 67.1116 187.652 65.0463 187.868 63.1094C188.065 61.352 187.45 59.3626 184.953 57.6606C181.787 55.5035 179.188 55.5952 176.962 56.8009C174.742 58.0031 172.545 60.5189 170.757 64.2219Z" fill="#FDE9C9"/>
<path fill-rule="evenodd" clip-rule="evenodd" d="M283.809 141.642C252.363 129.954 228.298 144.487 220.516 152.707C218.618 154.713 215.453 154.799 213.448 152.901C211.443 151.002 211.356 147.838 213.254 145.832C223.137 135.393 251.267 118.878 287.293 132.268C289.881 133.23 291.2 136.108 290.238 138.697C289.276 141.285 286.397 142.604 283.809 141.642Z" fill="#FDE9C9"/>
<path fill-rule="evenodd" clip-rule="evenodd" d="M251.819 152.149C252.52 151.892 253.259 151.55 253.828 151.056C254.504 150.469 254.78 149.712 254.964 148.916C255.201 147.893 255.296 146.804 255.584 145.779C255.69 145.399 255.895 145.255 255.983 145.191C256.205 145.03 256.43 144.987 256.641 145.003C256.892 145.022 257.236 145.119 257.462 145.551C257.494 145.612 257.536 145.706 257.564 145.835C257.585 145.93 257.598 146.225 257.62 146.347C257.674 146.647 257.72 146.947 257.763 147.249C257.905 148.253 257.987 149.106 258.437 150.029C259.047 151.281 259.658 152.047 260.487 152.387C261.289 152.715 262.248 152.653 263.472 152.396C263.589 152.367 263.704 152.342 263.818 152.322C264.358 152.225 264.875 152.589 264.981 153.142C265.087 153.694 264.744 154.232 264.208 154.354C264.097 154.379 263.987 154.403 263.878 154.425C262.223 154.846 260.307 156.349 259.193 157.665C258.85 158.07 258.347 159.205 257.835 159.928C257.457 160.462 257.031 160.814 256.675 160.938C256.435 161.022 256.234 161.009 256.067 160.967C255.825 160.906 255.624 160.771 255.47 160.557C255.386 160.439 255.309 160.282 255.272 160.082C255.254 159.985 255.252 159.74 255.252 159.629C255.148 159.259 255.02 158.899 254.927 158.526C254.704 157.637 254.269 157.075 253.751 156.331C253.266 155.635 252.746 155.198 251.983 154.849C251.884 154.824 251.084 154.623 250.801 154.507C250.388 154.338 250.191 154.054 250.12 153.901C249.998 153.641 249.986 153.415 250.01 153.226C250.046 152.947 250.168 152.708 250.384 152.516C250.518 152.396 250.718 152.279 250.986 152.222C251.193 152.178 251.741 152.152 251.819 152.149ZM256.515 150.7C256.552 150.785 256.591 150.87 256.633 150.956C257.527 152.791 258.526 153.815 259.741 154.312L259.782 154.328C258.969 154.948 258.234 155.641 257.671 156.305C257.44 156.579 257.134 157.147 256.802 157.729C256.502 156.724 256.01 156.014 255.391 155.125C254.918 154.447 254.423 153.936 253.814 153.52C254.287 153.271 254.737 152.979 255.13 152.639C255.783 152.071 256.215 151.414 256.515 150.7Z" fill="#ACD4DF"/>
<path d="M75.5825 152.427C76.2593 151.818 77.3031 151.876 77.908 152.557L77.909 152.557C78.5179 153.237 78.4597 154.283 77.784 154.891C73.8794 158.404 71.6665 162.745 71.0228 167.961L71.0217 167.96C70.9131 168.866 70.0893 169.51 69.1834 169.396L69.1825 169.397C68.2829 169.282 67.6375 168.455 67.7517 167.549C68.4951 161.529 71.0687 156.49 75.5825 152.427Z" fill="#011625" stroke="#011625"/>
<path d="M-4.93958 162.418C3.2783 157.191 13.6631 158.919 19.8525 166.359C20.4811 165.57 21.1578 164.819 21.8738 164.112L21.8737 164.111C29.9209 156.168 43.4616 156.067 55.1501 163.728L55.7053 164.098C57.6079 165.393 59.2612 167.465 60.6892 169.994C62.1198 172.528 63.342 175.553 64.3683 178.791C66.3523 185.05 67.6662 192.142 68.5315 197.873C69.1995 195.142 70.0115 192.459 70.903 189.771L72.5765 184.698C76.5015 172.808 80.7391 160.679 88.7582 150.814L88.759 150.812C89.3363 150.108 90.3739 150 91.0778 150.581L91.2039 150.694C91.7954 151.288 91.8498 152.247 91.3135 152.907L91.3125 152.907C82.4687 163.79 78.4285 177.564 74.0301 190.82C72.6532 194.969 71.4802 199.077 70.7547 203.368L70.7548 203.369C70.5332 204.662 70.3044 205.925 70.1524 207.206L70.1535 207.206C70.1535 207.207 70.1514 207.221 70.1556 207.257C70.1599 207.292 70.1689 207.337 70.1818 207.395C70.1949 207.454 70.2096 207.513 70.2273 207.585L70.2785 207.811L70.2794 207.817C70.3529 208.215 70.4049 208.64 70.3724 208.985L70.3719 208.988C70.3076 209.62 70.0157 210.1 69.6001 210.413L69.5975 210.416C69.2922 210.643 68.8933 210.805 68.3817 210.796L68.3768 210.796C68.0127 210.785 67.4199 210.676 67.0034 210.006L67.0033 210.005C66.9552 209.928 66.9183 209.833 66.8924 209.759C66.8608 209.668 66.8269 209.554 66.7924 209.42C66.7233 209.151 66.6487 208.786 66.5876 208.331L66.5874 208.33C66.1159 204.758 64.9018 192.63 61.9131 182.08C60.954 178.693 59.8339 175.48 58.4978 172.807C57.1578 170.127 55.6232 168.036 53.8599 166.836C43.479 159.777 31.596 159.538 24.5184 166.151L24.1852 166.472C23.2935 167.352 22.478 168.305 21.7517 169.323C22.0291 170.084 22.2816 171.062 22.4306 172.075C22.5964 173.202 22.642 174.414 22.4361 175.436C22.2199 176.507 21.7283 177.418 20.9471 177.979C20.1278 178.569 19.0178 178.795 17.596 178.336L17.5949 178.335C16.38 177.942 15.8012 176.911 15.7154 175.721C15.6333 174.63 16.0079 173.334 16.2284 172.736C16.6798 171.509 17.2433 170.329 17.8972 169.208C12.7682 162.333 3.59744 160.676 -3.50545 165.431L-3.50641 165.431C-4.26746 165.939 -5.28822 165.728 -5.79484 164.972L-5.79627 164.969C-6.29631 164.212 -6.09818 163.186 -5.33793 162.678L-4.93958 162.418ZM19.2901 173.969C19.1769 174.293 19.0251 174.809 18.9998 175.275C18.9998 175.277 18.9998 175.279 18.9998 175.281C19.0021 175.281 19.0047 175.282 19.0069 175.282C19.0187 175.283 19.0272 175.28 19.0332 175.28C19.0476 175.266 19.074 175.237 19.1029 175.166C19.1412 175.071 19.1712 174.947 19.2061 174.774L19.2553 174.472C19.2755 174.311 19.2847 174.142 19.2901 173.969Z" fill="#011625" stroke="#011625"/>
</g>
<defs>
<linearGradient id="paint0_linear_1216_4914" x1="154.594" y1="0.739115" x2="157.001" y2="413.381" gradientUnits="userSpaceOnUse">
<stop stop-color="#F2F2F2"/>
<stop offset="1" stop-color="#EFEFEF"/>
</linearGradient>
<clipPath id="clip0_1216_4914">
<rect width="300" height="300" fill="white"/>
</clipPath>
</defs>
</svg>
