<svg width="300" height="300" viewBox="0 0 300 300" fill="none" xmlns="http://www.w3.org/2000/svg">
<path d="M163.5 277C230.603 277 285 222.603 285 155.5C285 88.3974 230.603 34 163.5 34C96.3974 34 42 88.3974 42 155.5C42 222.603 96.3974 277 163.5 277Z" fill="url(#paint0_linear_1216_4732)"/>
<path d="M153.078 32.124L57 109.439V234.5C57 245.546 65.9543 254.5 77 254.5H253.591C264.637 254.5 273.591 245.546 273.591 234.5V109.439L178.206 32.1652C170.886 26.2344 160.418 26.2172 153.078 32.124Z" fill="#011625"/>
<rect x="88.2529" y="55.9443" width="154.812" height="192.716" rx="24" fill="url(#paint1_linear_1216_4732)"/>
<path d="M101.573 85C101.573 82.7909 103.364 81 105.573 81H222.031C224.24 81 226.031 82.7909 226.031 85C226.031 87.2091 224.24 89 222.031 89H105.573C103.364 89 101.573 87.2091 101.573 85Z" fill="#ACD4DF"/>
<path d="M101.573 111C101.573 108.791 103.364 107 105.573 107H222.031C224.24 107 226.031 108.791 226.031 111C226.031 113.209 224.24 115 222.031 115H105.573C103.364 115 101.573 113.209 101.573 111Z" fill="#D5D5D5"/>
<path d="M101.573 137C101.573 134.791 103.364 133 105.573 133H222.031C224.24 133 226.031 134.791 226.031 137C226.031 139.209 224.24 141 222.031 141H105.573C103.364 141 101.573 139.209 101.573 137Z" fill="#D5D5D5"/>
<path d="M101.573 163C101.573 160.791 103.364 159 105.573 159H222.031C224.24 159 226.031 160.791 226.031 163C226.031 165.209 224.24 167 222.031 167H105.573C103.364 167 101.573 165.209 101.573 163Z" fill="#D5D5D5"/>
<path fill-rule="evenodd" clip-rule="evenodd" d="M57 109.233V234.5C57 245.546 65.9543 254.5 77 254.5H198.065C217.525 254.5 225.524 229.528 209.685 218.222L57 109.233Z" fill="#5F8C84"/>
<path fill-rule="evenodd" clip-rule="evenodd" d="M273.591 109.233V234.5C273.591 245.546 264.637 254.5 253.591 254.5H75.6862L273.591 109.233Z" fill="#5F8C84"/>
<path fill-rule="evenodd" clip-rule="evenodd" d="M274 111.116L83.1537 254.5H75.1885L271.653 107.884L274 111.116Z" fill="#011625"/>
<path d="M17.1211 196.193C16.3345 195.685 15.2838 195.915 14.7812 196.706L14.6953 196.856C14.3053 197.624 14.553 198.578 15.2891 199.054V199.055C19.884 202.02 22.8773 206.118 24.4014 211.374L24.4023 211.373C24.6607 212.274 25.6023 212.793 26.5029 212.53H26.5039C27.3982 212.267 27.9181 211.322 27.6543 210.42C25.8976 204.365 22.4247 199.617 17.1211 196.193Z" fill="#011625" stroke="#011625"/>
<path d="M101.479 193.154C92.177 189.144 81.7988 192.64 76.6802 201.311C75.8992 200.598 75.0739 199.934 74.2153 199.321L73.7563 199.003C64.0528 192.465 50.1228 194.857 39.4907 204.896C37.7535 206.537 36.3984 208.934 35.3501 211.767C34.3 214.604 33.5448 217.911 33.0259 221.405C32.0165 228.199 31.8429 235.747 31.9038 241.793C30.7567 239.065 29.4658 236.413 28.0903 233.77C21.2822 220.69 14.592 206.775 3.31982 196.712L3.31885 196.71C2.61779 196.089 1.54679 196.149 0.927246 196.854L0.818848 196.99C0.315517 197.69 0.416733 198.67 1.06885 199.253V199.254C11.9537 208.973 18.3814 222.457 25.0884 235.345C27.1883 239.379 29.0713 243.405 30.5259 247.693V247.694C30.9674 248.987 31.4108 250.248 31.7788 251.54C31.7792 251.542 31.78 251.546 31.7808 251.552C31.7821 251.562 31.7839 251.576 31.7847 251.595C31.7862 251.633 31.7845 251.681 31.7808 251.743C31.777 251.806 31.7713 251.87 31.7651 251.947L31.7505 252.187V252.191C31.7407 252.612 31.7575 253.055 31.8472 253.401L31.8481 253.405C32.0171 254.038 32.3929 254.478 32.8667 254.729L32.8696 254.729C33.217 254.911 33.6486 255.011 34.1675 254.918L34.1733 254.917C34.5419 254.847 35.1245 254.639 35.438 253.891V253.89C35.4738 253.805 35.4959 253.702 35.5103 253.622C35.5276 253.524 35.5439 253.403 35.5571 253.26C35.5836 252.973 35.5988 252.587 35.5864 252.11V252.109C35.4807 248.364 34.7244 235.705 36.0513 224.373C36.4769 220.735 37.0967 217.249 38.0278 214.281C38.9033 211.491 40.0406 209.203 41.5112 207.67L41.8101 207.373C51.461 198.261 63.8734 196.121 72.2544 202.095C73.3193 202.854 74.3169 203.702 75.2339 204.632C75.0737 205.458 74.9764 206.507 74.9907 207.575C75.0066 208.759 75.1594 210.009 75.5386 211.021C75.9115 212.016 76.5081 212.826 77.314 213.29L77.478 213.378C78.4106 213.845 79.5817 213.893 80.9614 213.189C82.1348 212.59 82.5581 211.446 82.4507 210.215L82.4263 210.001C82.281 208.929 81.7379 207.782 81.4331 207.24L81.1558 206.762C80.5531 205.749 79.872 204.789 79.1284 203.884C83.2627 195.958 92.4254 192.732 100.52 196.448L100.521 196.449C101.376 196.84 102.377 196.46 102.768 195.609L102.77 195.606C103.154 194.756 102.785 193.747 101.93 193.355L101.479 193.154ZM78.4839 208.911L78.4829 208.912C78.6527 209.216 78.9295 209.772 79.0425 210.293C79.0438 210.3 79.0441 210.308 79.0454 210.316C79.0367 210.319 79.0288 210.323 79.021 210.324C79.003 210.328 78.991 210.328 78.9839 210.328C78.9647 210.317 78.9297 210.289 78.8823 210.211C78.8264 210.118 78.7738 209.995 78.7095 209.823L78.6089 209.52C78.5499 209.318 78.5014 209.101 78.4624 208.876C78.4692 208.888 78.4771 208.899 78.4839 208.911Z" fill="#011625" stroke="#011625"/>
<path fill-rule="evenodd" clip-rule="evenodd" d="M264.476 62.9437C265.687 58.0333 265.608 53.3045 265.753 48.3238C265.781 47.3511 265.015 46.5424 264.042 46.5131C263.069 46.4838 262.256 47.2514 262.228 48.2241C262.09 52.947 262.201 57.4414 261.052 62.1057C260.819 63.0491 261.398 64.0042 262.343 64.2328C263.287 64.4672 264.243 63.8871 264.476 62.9437Z" fill="#011625"/>
<path fill-rule="evenodd" clip-rule="evenodd" d="M274.766 72.4598C282.983 64.9711 290.725 55.3378 296.137 45.6107C296.609 44.7611 296.302 43.6887 295.451 43.2199C294.6 42.7512 293.525 43.0559 293.053 43.9056C287.82 53.3104 280.333 62.6273 272.387 69.864C271.669 70.5203 271.619 71.6336 272.275 72.3485C272.932 73.0634 274.048 73.1161 274.766 72.4598Z" fill="#011625"/>
<path fill-rule="evenodd" clip-rule="evenodd" d="M276.848 80.6399C284.363 81.8763 292.11 79.7668 298.943 76.7842C299.835 76.3916 300.242 75.3545 299.852 74.4697C299.462 73.579 298.421 73.1747 297.529 73.5614C291.306 76.2803 284.267 78.2961 277.422 77.171C276.462 77.0128 275.554 77.6632 275.395 78.6183C275.237 79.5734 275.888 80.4817 276.848 80.6399Z" fill="#011625"/>
<path fill-rule="evenodd" clip-rule="evenodd" d="M59.7749 45.6152C60.8456 45.2336 61.9724 44.7265 62.8413 43.9924C63.8733 43.1204 64.293 41.9973 64.5749 40.8152C64.9367 39.2964 65.0813 37.6785 65.5201 36.1573C65.6826 35.5924 65.9952 35.3788 66.1294 35.2841C66.4684 35.0447 66.8112 34.9807 67.1336 35.0047C67.5158 35.0324 68.0407 35.177 68.386 35.8176C68.4352 35.9093 68.4992 36.049 68.5423 36.2404C68.5736 36.3807 68.5939 36.8195 68.6272 37.0004C68.7103 37.4459 68.7798 37.8915 68.845 38.3395C69.0623 39.8306 69.1872 41.097 69.8733 42.4668C70.8044 44.3265 71.7374 45.4644 73.0026 45.9684C74.226 46.4558 75.6887 46.3641 77.5577 45.9819C77.7355 45.9389 77.9115 45.9019 78.0856 45.8718C78.9096 45.7278 79.6973 46.2687 79.8592 47.0896C80.021 47.9099 79.4974 48.7093 78.6807 48.8896C78.5103 48.9272 78.3423 48.9629 78.1761 48.9955C75.6506 49.6207 72.7269 51.8521 71.0278 53.8059C70.5041 54.4084 69.7373 56.0927 68.9552 57.1672C68.378 57.9598 67.7293 58.4822 67.1847 58.6669C66.8198 58.7912 66.5121 58.7721 66.258 58.7093C65.8887 58.6183 65.5823 58.4182 65.3472 58.1001C65.2192 57.9259 65.1004 57.6927 65.0438 57.3948C65.0167 57.2515 65.0137 56.8872 65.0143 56.7223C64.8549 56.174 64.6598 55.6385 64.5177 55.0853C64.1786 53.7653 63.5133 52.9296 62.7232 51.8256C61.9841 50.7924 61.1903 50.1432 60.0266 49.625C59.8752 49.5881 58.6537 49.289 58.2223 49.1173C57.5921 48.8656 57.2918 48.4441 57.1829 48.217C56.9976 47.8318 56.9786 47.4952 57.0155 47.2146C57.0703 46.8004 57.2561 46.4459 57.586 46.1598C57.7903 45.9819 58.0955 45.809 58.5041 45.7247C58.8198 45.6589 59.6573 45.6207 59.7749 45.6152ZM66.941 43.4638C66.9976 43.5899 67.058 43.7167 67.122 43.8447C68.4856 46.5684 70.0106 48.089 71.8641 48.8269L71.9263 48.8509C70.6863 49.7715 69.5638 50.8004 68.7059 51.7869C68.3527 52.193 67.885 53.0367 67.3798 53.9019C66.9207 52.4096 66.17 51.3549 65.226 50.0349C64.5047 49.0275 63.749 48.2693 62.8204 47.6515C63.541 47.2816 64.2284 46.8484 64.8272 46.3426C65.8241 45.5001 66.4832 44.5241 66.941 43.4638Z" fill="#417BA4"/>
<circle cx="213" cy="234" r="30" fill="#8FA692"/>
<path fill-rule="evenodd" clip-rule="evenodd" d="M225.139 224.897C226.301 226.079 226.285 227.978 225.103 229.139L210.861 243.139C209.693 244.287 207.822 244.287 206.655 243.139L200.897 237.48C199.715 236.318 199.699 234.419 200.861 233.237C202.022 232.056 203.921 232.04 205.103 233.201L208.758 236.793L220.897 224.861C222.079 223.699 223.978 223.715 225.139 224.897Z" fill="white"/>
<defs>
<linearGradient id="paint0_linear_1216_4732" x1="162.563" y1="-5.56338" x2="165.052" y2="421.126" gradientUnits="userSpaceOnUse">
<stop stop-color="#F2F2F2"/>
<stop offset="1" stop-color="#EFEFEF"/>
</linearGradient>
<linearGradient id="paint1_linear_1216_4732" x1="165.659" y1="55.9443" x2="165.659" y2="248.66" gradientUnits="userSpaceOnUse">
<stop stop-color="white"/>
<stop offset="0.71875" stop-color="#EAEAEA"/>
</linearGradient>
</defs>
</svg>
